<?xml version="1.0" standalone="no"?>
<!DOCTYPE svg PUBLIC "-//W3C//DTD SVG 20010904//EN"
 "http://www.w3.org/TR/2001/REC-SVG-20010904/DTD/svg10.dtd">
<svg version="1.0" xmlns="http://www.w3.org/2000/svg"
 width="1293.000000pt" height="311.000000pt" viewBox="0 0 1293.000000 311.000000"
 preserveAspectRatio="xMidYMid meet">

<g transform="translate(0.000000,311.000000) scale(0.100000,-0.100000)"
fill="#000000" stroke="none">
<path d="M10 1555 l0 -1555 1308 2 1307 3 3 179 c1 99 -1 183 -6 188 -5 5
-1997 168 -2063 168 -5 0 -9 291 -9 714 l0 715 43 6 c23 4 490 80 1037 169
l995 161 0 400 0 400 -1307 3 -1308 2 0 -1555z"/>
<path d="M6700 2480 l0 -631 93 3 92 3 3 63 3 64 50 -47 c113 -106 275 -129
424 -61 325 148 324 706 -2 858 -88 42 -186 48 -281 19 -58 -17 -83 -32 -131
-77 l-61 -56 -2 244 -3 243 -92 3 -93 3 0 -631z m560 89 c93 -42 147 -125 157
-238 15 -179 -95 -314 -256 -314 -165 -1 -274 112 -274 283 0 138 72 244 193
281 49 15 134 9 180 -12z"/>
<path d="M3854 2751 c-83 -24 -139 -59 -202 -125 -156 -164 -171 -432 -34
-611 223 -294 719 -210 806 138 l6 27 -97 0 -98 -1 -21 -42 c-24 -50 -89 -102
-147 -118 -57 -15 -154 -6 -202 19 -98 50 -149 143 -149 268 0 68 5 90 28 137
48 99 133 150 248 150 100 0 171 -38 217 -116 l34 -57 94 0 95 0 -7 28 c-25
104 -118 223 -210 268 -115 56 -245 68 -361 35z"/>
<path d="M4852 2750 c-165 -54 -271 -211 -280 -416 -5 -119 8 -191 49 -273
122 -244 438 -302 625 -116 l44 44 0 -70 0 -70 93 3 92 3 3 448 2 447 -95 0
-95 0 0 -71 0 -72 -41 46 c-61 70 -150 110 -252 114 -62 2 -97 -2 -145 -17z
m259 -175 c182 -62 241 -325 105 -473 -55 -60 -113 -85 -196 -85 -103 0 -175
42 -227 131 -23 39 -28 60 -31 139 -4 89 -3 97 27 157 61 125 189 176 322 131z"/>
<path d="M6063 2756 c-58 -19 -105 -50 -147 -96 l-36 -40 0 65 0 65 -95 0 -95
0 0 -450 0 -451 93 3 92 3 5 291 5 291 30 49 c80 130 296 143 366 21 24 -42
24 -45 27 -350 l3 -308 92 3 92 3 3 280 c3 292 -5 388 -37 461 -28 61 -84 119
-144 144 -64 29 -191 37 -254 16z"/>
<path d="M8100 2754 c-169 -45 -284 -165 -325 -335 -91 -389 260 -690 640
-548 98 36 190 126 231 224 l14 35 -97 0 -98 -1 -26 -38 c-74 -107 -285 -121
-396 -27 -42 36 -75 96 -86 154 l-6 32 366 0 366 0 -6 78 c-7 83 -33 171 -71
237 -31 51 -111 127 -164 154 -98 50 -234 64 -342 35z m255 -183 c36 -20 59
-43 83 -81 57 -95 69 -90 -223 -90 -140 0 -255 2 -255 5 0 3 11 27 24 53 40
79 97 122 191 146 43 11 130 -5 180 -33z"/>
<path d="M9223 2751 c-67 -23 -118 -62 -154 -119 l-29 -46 0 82 0 82 -95 0
-95 0 2 -447 3 -448 90 0 90 0 5 260 c5 236 7 264 26 305 46 100 132 153 251
154 l73 1 0 98 0 97 -57 0 c-32 -1 -81 -9 -110 -19z"/>
<path d="M9903 2751 c-67 -23 -118 -62 -154 -119 l-29 -46 0 82 0 82 -95 0
-95 0 2 -447 3 -448 90 0 90 0 5 260 c5 247 6 262 29 308 50 102 129 150 248
151 l73 1 0 98 0 97 -57 0 c-32 -1 -81 -9 -110 -19z"/>
<path d="M10469 2752 c-182 -60 -289 -228 -289 -452 0 -247 136 -426 351 -460
121 -19 237 18 321 101 l47 47 3 -66 3 -67 90 0 90 0 3 448 2 447 -95 0 -95 0
0 -70 0 -70 -41 45 c-24 25 -70 59 -106 77 -83 41 -196 49 -284 20z m243 -172
c57 -16 120 -70 153 -130 27 -50 30 -63 30 -150 0 -106 -16 -149 -77 -210
-103 -104 -288 -98 -382 12 -47 54 -66 115 -66 208 0 65 4 86 30 137 47 93
122 141 225 142 28 1 67 -4 87 -9z"/>
<path d="M7820 1309 c-66 -28 -93 -88 -67 -152 26 -60 111 -86 175 -53 70 36
75 147 9 191 -32 21 -85 27 -117 14z"/>
<path d="M11294 1310 c-34 -13 -74 -69 -74 -101 0 -37 23 -83 52 -103 13 -9
43 -16 71 -16 42 0 54 5 83 34 28 28 34 41 34 78 0 52 -21 85 -66 104 -37 16
-69 17 -100 4z"/>
<path d="M6680 645 l0 -625 95 0 95 0 0 65 0 64 46 -45 c63 -63 139 -96 235
-102 193 -11 352 102 412 293 30 97 30 263 -2 349 -43 121 -118 207 -220 255
-49 23 -68 26 -161 26 -99 0 -109 -2 -172 -33 -40 -20 -81 -49 -103 -74 l-35
-42 0 247 0 247 -95 0 -95 0 0 -625z m578 79 c151 -75 191 -318 75 -453 -97
-114 -280 -121 -387 -15 -99 99 -106 290 -16 404 71 89 219 118 328 64z"/>
<path d="M12740 645 l0 -625 95 0 95 0 0 625 0 625 -95 0 -95 0 0 -625z"/>
<path d="M5528 1137 l-88 -20 0 -99 0 -98 -80 0 -80 0 0 -90 0 -90 80 0 80 0
0 -207 c0 -234 13 -320 58 -392 82 -134 267 -177 455 -108 38 14 70 27 72 29
1 1 -4 36 -13 76 -14 66 -18 73 -36 69 -133 -33 -183 -39 -225 -27 -53 14 -96
57 -111 108 -5 20 -10 130 -10 245 l0 207 185 0 186 0 -3 88 -3 87 -182 3
-183 2 0 120 c0 66 -3 119 -7 119 -5 -1 -47 -10 -95 -22z"/>
<path d="M3803 911 c-174 -64 -277 -230 -277 -446 0 -94 18 -175 56 -249 34
-66 122 -150 191 -182 55 -26 73 -29 162 -29 88 0 107 3 157 27 32 15 80 48
108 74 l50 47 0 -67 0 -66 95 0 95 0 -2 447 -3 448 -92 3 -93 3 0 -75 0 -75
-46 49 c-71 76 -137 104 -254 107 -75 3 -106 -1 -147 -16z m287 -182 c91 -41
147 -124 157 -233 11 -117 -42 -229 -133 -282 -35 -21 -63 -28 -118 -32 -122
-8 -209 46 -259 157 -30 67 -29 188 2 258 25 56 83 116 135 139 48 21 163 17
216 -7z"/>
<path d="M4985 902 c-56 -27 -96 -62 -137 -122 -17 -24 -17 -23 -17 58 l-1 83
-92 -3 -93 -3 -3 -447 -2 -448 94 0 94 0 4 253 3 252 34 69 c49 100 128 146
254 146 l57 0 0 95 0 95 -67 0 c-54 0 -81 -6 -128 -28z"/>
<path d="M8447 910 c-189 -60 -307 -232 -307 -446 0 -259 174 -446 430 -461
142 -9 257 27 344 107 50 46 101 121 111 162 l7 28 -90 0 -90 0 -32 -40 c-49
-62 -119 -93 -210 -94 -94 0 -166 29 -215 87 -31 36 -65 111 -65 144 0 10 68
13 359 13 415 0 378 -11 361 111 -18 131 -47 196 -122 276 -92 96 -184 133
-332 132 -60 0 -111 -6 -149 -19z m290 -176 c46 -28 113 -118 113 -151 0 -10
-53 -13 -255 -13 -140 0 -255 2 -255 5 0 15 45 93 69 118 52 57 111 78 208 73
60 -2 81 -8 120 -32z"/>
<path d="M9586 914 c-48 -17 -102 -57 -136 -98 l-25 -31 -5 65 -5 65 -92 3
-93 3 0 -451 0 -450 94 0 95 0 3 288 c3 274 4 289 25 328 46 86 112 118 228
112 86 -4 119 -22 150 -84 18 -36 20 -62 23 -342 l3 -302 95 0 94 0 0 288 c0
158 -5 316 -10 350 -30 181 -139 273 -323 271 -45 0 -100 -7 -121 -15z"/>
<path d="M10596 914 c-48 -17 -102 -57 -136 -98 l-25 -31 -5 65 -5 65 -92 3
-93 3 0 -451 0 -450 95 0 95 0 0 278 c0 270 1 278 24 327 43 94 110 130 229
123 84 -4 124 -26 153 -85 17 -34 19 -69 22 -341 l3 -302 95 0 94 0 0 288 c0
158 -5 316 -10 350 -21 125 -86 214 -186 252 -66 24 -198 26 -258 4z"/>
<path d="M11892 911 c-116 -43 -211 -148 -253 -280 -29 -89 -29 -240 -1 -328
56 -178 193 -291 363 -301 125 -7 224 31 302 117 l37 41 0 -70 0 -70 95 0 95
0 -2 447 -3 448 -92 3 -93 3 0 -75 0 -75 -46 49 c-71 76 -137 104 -254 107
-75 3 -106 -1 -148 -16z m288 -182 c93 -42 150 -128 158 -239 5 -80 -8 -134
-51 -196 -49 -73 -110 -106 -205 -112 -70 -4 -82 -1 -132 25 -99 52 -144 136
-143 269 1 118 62 218 157 260 48 21 163 17 216 -7z"/>
<path d="M7770 470 l0 -450 95 0 95 0 -2 448 -3 447 -92 3 -93 3 0 -451z"/>
<path d="M11250 470 l0 -450 95 0 95 0 -2 448 -3 447 -92 3 -93 3 0 -451z"/>
</g>
</svg>
